<svg xmlns="http://www.w3.org/2000/svg" style="isolation:isolate" width="273.072" height="135.876"><defs><clipPath id="a"><path d="M0 0h273.072v135.876H0z"/></clipPath></defs><g fill-rule="evenodd" clip-path="url(#a)"><path fill="#FFF" d="M231.027 121.439a8.159 8.159 0 0 1-1.032.81c-.62.39-1.28.71-1.98.94-.61.19-1.24.32-1.88.38-.55.06-1.11.06-1.67.02a8.16 8.16 0 0 1-3.56-1.11c-.8-.47-1.53-1.05-2.18-1.71-.24-.25-.47-.51-.69-.78-.63.35-1.28.66-1.94.96-.77.34-1.57.63-2.39.87-.85.25-1.73.43-2.61.53-.88.11-1.77.13-2.65.07-1.13-.08-2.25-.32-3.32-.7-1.08-.37-2.11-.87-3.08-1.47-.83-.51-1.62-1.09-2.36-1.73a26.3 26.3 0 0 1-2.33-2.27c-.8-.88-1.53-1.82-2.19-2.8a16.614 16.614 0 0 1-1.254-2.189c-.291.84-.621 1.664-.976 2.479-.38.87-.81 1.7-1.28 2.51-.45.75-.96 1.46-1.53 2.11-.46.53-.96 1.01-1.5 1.46-.58.47-1.2.87-1.87 1.21-.64.32-1.32.57-2.01.75-.72.18-1.45.27-2.19.28-.98.01-1.95-.1-2.89-.34-.98-.25-1.92-.65-2.79-1.17-.87-.53-1.66-1.19-2.34-1.95a11.857 11.857 0 0 1-1.404-1.914c-.428.445-.871.876-1.326 1.294-.86.78-1.77 1.5-2.73 2.15-.91.63-1.88 1.17-2.89 1.63-.96.45-1.96.81-2.98 1.08-1.02.28-2.06.47-3.11.57-1.21.11-2.42.09-3.62-.06-1.23-.16-2.44-.42-3.62-.79-.14.12-.27.24-.42.36a7.46 7.46 0 0 1-4.05 1.68c-1.16.11-2.33 0-3.45-.33-.94-.28-1.85-.67-2.7-1.17-.56-.32-1.1-.68-1.61-1.07l-.036-.028a8.898 8.898 0 0 1-1.214 1.698c-.8.88-1.74 1.61-2.8 2.16-.99.51-2.05.88-3.15 1.08-.7.13-1.41.19-2.12.18-.73-.01-1.44-.1-2.15-.25-.71-.16-1.4-.39-2.07-.69-.64-.29-1.26-.64-1.84-1.04a6.018 6.018 0 0 1-.207-.149 9.779 9.779 0 0 1-1.083 1.539c-.53.62-1.13 1.16-1.79 1.62-.77.52-1.61.92-2.51 1.17-1.24.35-2.53.44-3.81.28-1.14-.14-2.27-.4-3.36-.78a14.36 14.36 0 0 1-3.56-1.8c-1.12-.78-2.09-1.75-2.88-2.86-.36-.51-.71-1.03-1.06-1.54-.38-.57-.76-1.13-1.14-1.7v.03c-.01.71-.02 1.42-.05 2.13-.02.7-.05 1.41-.09 2.11-.03.64-.08 1.29-.15 1.93-.06.57-.16 1.13-.28 1.69a14 14 0 0 1-.33 1.23c-.14.45-.32.88-.53 1.31-.41.82-.94 1.57-1.59 2.22-.93.94-2.08 1.62-3.35 1.98-1.18.33-2.41.41-3.62.24-.99-.13-1.96-.39-2.88-.76a14.8 14.8 0 0 1-1.71-.8c-.62-.33-1.23-.69-1.82-1.08-.61-.39-1.2-.82-1.77-1.27-.53-.42-1.03-.87-1.5-1.35-.69-.69-1.3-1.45-1.83-2.27-.55-.88-.98-1.83-1.26-2.83-.11-.38-.19-.77-.26-1.17-.07-.44-.13-.88-.18-1.33l-.12-1.2c-.06-.6-.11-1.2-.16-1.8-.14-1.76-.26-3.51-.36-5.27-.22-3.73-.42-7.46-.6-11.2-.21-4.09-.44-8.19-.71-12.28-.13-1.98-.29-3.96-.48-5.93-.1-.94-.2-1.89-.33-2.83-.04-.35-.1-.71-.17-1.06-.15-.75-.24-1.5-.28-2.25-.03-.82.03-1.64.19-2.44.14-.69.35-1.35.64-1.98.34-.74.78-1.43 1.32-2.04a8.205 8.205 0 0 1 3.96-2.47c.244-.069.491-.129.739-.177-.044-.023-.086-.048-.129-.073-.59-.34-1.15-.72-1.68-1.13a24.17 24.17 0 0 1-.739-.581c-.45.749-.993 1.443-1.611 2.061-.85.83-1.83 1.51-2.92 2-1.01.46-2.1.77-3.21.91-.7.08-1.41.1-2.12.06-.72-.05-1.44-.18-2.13-.37-.7-.2-1.38-.47-2.03-.8-.63-.33-1.22-.71-1.78-1.14-.59-.45-1.12-.96-1.6-1.52-.49-.57-.91-1.18-1.27-1.82l-.029-.056a26.16 26.16 0 0 1-.601 1.656c-.33.81-.73 1.58-1.2 2.31-.38.59-.8 1.15-1.27 1.66-.5.55-1.06 1.05-1.67 1.48-.59.41-1.22.76-1.88 1.03-.69.29-1.4.49-2.13.61-.96.15-1.93.18-2.9.08a8.242 8.242 0 0 1-1.513-.285c-.139.705-.318 1.41-.527 2.115-.18.63-.41 1.24-.67 1.84-.2.45-.42.88-.67 1.3-.26.45-.56.88-.9 1.28a8.73 8.73 0 0 1-1.74 1.64c-.77.56-1.62.97-2.53 1.23-1.09.32-2.23.44-3.36.37a9.227 9.227 0 0 1-3.42-.9 9.113 9.113 0 0 1-3.01-2.33c-.6-.72-1.09-1.53-1.44-2.4-.78.49-1.58.93-2.41 1.32-.93.44-1.9.8-2.89 1.09-1.1.31-2.21.52-3.35.61-1.16.09-2.33.08-3.49-.03a22.02 22.02 0 0 1-3.52-.64c-1.28-.34-2.53-.77-3.75-1.27-1.35-.56-2.65-1.23-3.88-2.02-1.14-.74-2.19-1.6-3.12-2.57-.87-.9-1.63-1.9-2.26-2.98-.63-1.07-1.12-2.22-1.47-3.42-.2-.7-.38-1.41-.54-2.13-.16-.74-.3-1.48-.42-2.23-.39-2.5-.56-5.04-.49-7.57.09-3.04.39-6.06.91-9.05.66-3.82 1.64-7.58 2.95-11.23 1.23-3.43 2.77-6.74 4.61-9.89.94-1.6 1.97-3.13 3.09-4.6.96-1.26 2.02-2.44 3.17-3.52 1.28-1.22 2.7-2.3 4.21-3.21 1.43-.86 2.96-1.53 4.56-1.99 1.24-.36 2.53-.47 3.82-.33 1.17.13 2.31.43 3.4.88.77.33 1.51.71 2.21 1.16.77.49 1.5 1.01 2.2 1.59 1.48 1.2 2.8 2.58 3.94 4.1 1.06 1.41 1.84 2.99 2.33 4.67.199.665.319 1.36.359 2.054.39-.498.832-.957 1.311-1.364a8.89 8.89 0 0 1 2.22-1.36c.73-.32 1.5-.55 2.29-.67 1.3-.21 2.62-.18 3.9.08.97.2 1.92.51 2.81.92.29-.2.58-.41.88-.6 1.21-.82 2.5-1.52 3.84-2.11 1.21-.53 2.49-.91 3.8-1.12.44-.069.881-.127 1.325-.166a7.905 7.905 0 0 1-.385-1.654c-.1-.79-.11-1.57-.04-2.36.06-.76.2-1.52.41-2.26.2-.74.47-1.45.8-2.13.33-.7.7-1.37 1.13-2.01.38-.59.81-1.15 1.27-1.68a11.33 11.33 0 0 1 3.86-2.97c.91-.42 1.88-.7 2.88-.83a8.53 8.53 0 0 1 2.76.11c.77.16 1.52.41 2.23.76.49.23.96.51 1.42.82.377.269.753.553 1.105.855-.009-.787.068-1.575.225-2.345.25-1.2.75-2.33 1.46-3.32a8.455 8.455 0 0 1 3.22-2.68c1.07-.51 2.23-.82 3.41-.91 1.26-.1 2.52.06 3.71.47 1.02.35 2 .81 2.91 1.39.59.37 1.16.78 1.7 1.21.63.51 1.24 1.04 1.82 1.59.71.67 1.37 1.37 1.99 2.12.57.69 1.09 1.42 1.55 2.19.53.89.96 1.84 1.3 2.82.33.99.54 2.02.62 3.06.04.51.06 1.02.06 1.54 0 .62-.01 1.23-.04 1.85-.02.45-.05.89-.09 1.34l-.03.45c.28-.17.58-.33.88-.48.95-.46 1.99-.74 3.04-.83 1.07-.08 2.15.01 3.18.28.96.24 1.88.6 2.74 1.06.64.35 1.26.75 1.84 1.19.61.47 1.2.97 1.76 1.5.5.48.99.99 1.45 1.53.194.221.38.45.564.681a25.923 25.923 0 0 1 2.456-2.031c.82-.6 1.69-1.15 2.59-1.63.86-.46 1.76-.84 2.69-1.14.86-.29 1.74-.49 2.64-.62.89-.13 1.8-.17 2.7-.13 1.35.06 2.68.24 3.99.56 1.28.3 2.52.74 3.71 1.3 1.17.56 2.29 1.24 3.33 2.03 1.06.81 2.04 1.71 2.92 2.71.88.99 1.66 2.05 2.34 3.18a19.395 19.395 0 0 1 2.56 7.26c.18 1.31.25 2.64.19 3.97-.11 2.32-.48 4.62-1.11 6.86a37.047 37.047 0 0 1-2.223 5.905c.397.072.789.175 1.173.305 1.02.34 2 .8 2.91 1.37.58.36 1.14.75 1.67 1.17.62.49 1.23 1.01 1.81 1.54.71.66 1.38 1.36 2.01 2.1.58.69 1.11 1.42 1.58 2.18.53.88.98 1.81 1.32 2.77.34.97.57 1.98.67 3.01.06.71.11 1.42.13 2.13.02.81.03 1.61.01 2.42.92-.3 1.86-.49 2.82-.58 1.17-.11 2.35-.06 3.51.15 1.15.21 2.28.56 3.34 1.04.99.46 1.93 1.01 2.8 1.65.188.137.372.278.555.419.208-.319.444-.62.695-.909a8.929 8.929 0 0 1 4.39-2.69c.77-.21 1.57-.31 2.37-.32 1.31-.02 2.61.2 3.84.65.93.34 1.82.79 2.64 1.33.32-.16.64-.32.96-.47 1.32-.63 2.7-1.13 4.11-1.52 1.28-.34 2.6-.53 3.92-.54 1.1-.02 2.19.04 3.28.18 1 .13 1.98.37 2.92.72.79.3 1.55.69 2.25 1.16.8.55 1.51 1.22 2.1 1.99a8.414 8.414 0 0 1 1.166 2.033c.426-.306.862-.6 1.304-.883 1.22-.78 2.52-1.45 3.87-1.99 1.32-.53 2.71-.92 4.12-1.16 1.37-.23 2.76-.3 4.15-.2 1.16.09 2.3.33 3.4.73 1.1.4 2.15.91 3.15 1.53.8.51 1.57 1.07 2.3 1.68.83.69 1.62 1.42 2.37 2.2.72.74 1.4 1.52 2.04 2.33a19.717 19.717 0 0 1 1.963 3.074 21.205 21.205 0 0 1 1.797-1.134c1.3-.73 2.64-1.4 4.02-1.99a54.31 54.31 0 0 1 3.72-1.48c1.02-.37 2.06-.69 3.12-.98 1.53-.41 3.1-.69 4.68-.84a15.3 15.3 0 0 1 4.11.14c1.12.19 2.21.54 3.24 1.05 1 .5 1.93 1.12 2.77 1.85.73.63 1.39 1.32 1.98 2.08.63.8 1.2 1.64 1.71 2.52.45.79.86 1.6 1.23 2.42.33.76.61 1.54.84 2.34.29.98.47 1.99.55 3.01.09 1.03.05 2.06-.12 3.07-.15.89-.42 1.75-.8 2.57a8.288 8.288 0 0 1-2.03 2.71 8.145 8.145 0 0 1-3.63 1.84c-.64.14-1.29.21-1.94.2.12.22.24.43.35.65.42.8.78 1.62 1.07 2.47.29.83.5 1.69.65 2.56.14.85.21 1.72.21 2.59 0 .86-.07 1.73-.22 2.59-.22 1.35-.7 2.65-1.4 3.84-.68 1.13-1.51 2.17-2.48 3.07-.74.69-1.54 1.3-2.39 1.84-.94.61-1.92 1.15-2.94 1.63-1.1.52-2.24.95-3.41 1.29-1.17.35-2.37.6-3.58.76-1.25.16-2.52.22-3.78.19-1.33-.03-2.65-.16-3.95-.38-1.3-.21-2.57-.51-3.83-.89-1.18-.36-2.33-.8-3.44-1.32-1.05-.49-2.06-1.06-3.03-1.7a17.153 17.153 0 0 1-1.308-.94zM92.042 71.205a8.18 8.18 0 0 0 1.963-.846c.81-.49 1.56-1.06 2.24-1.71.7-.66 1.35-1.37 1.94-2.13.41-.52.81-1.05 1.19-1.58 1.02.74 2.06 1.42 3.15 2.05.032.018.065.037.098.054-.076.147-.149.295-.218.446-.37.79-.61 1.64-.72 2.51-.09.71-.11 1.42-.05 2.14.05.6.11 1.2.19 1.8.28 2.26.57 4.51.88 6.77.01.05.01.1.02.16-.53-.74-1.07-1.47-1.62-2.2-.29-.38-.59-.77-.89-1.15-.24-.3-.48-.6-.73-.89-.33-.39-.67-.77-1.02-1.13-.31-.34-.65-.65-1-.94-.91-.77-1.89-1.46-2.91-2.07a20.566 20.566 0 0 0-2.513-1.284z"/><path fill="#2E2E2E" d="M126.169 56.004q3.962-1.552 7.074-6.674 3.113-5.122 3.319-9.725.206-4.604-1.011-6.388-3.174 1.66-6.489 7.277-3.314 5.617-3.509 9.969-.195 4.351.616 5.541zm-10.288-5.218q.402-8.991 6.338-16.797 5.935-7.806 11.402-7.561 5.466.245 9.034 4.26 3.568 4.016 3.325 9.447-.244 5.43-3.085 10.925-2.84 5.494-7.682 8.989-4.841 3.495-10.164 3.256-3.956-.177-6.675-3.831-2.719-3.653-2.493-8.688zM89.82 64.539q-1.651.127-4.332-2.338t-2.803-4.045q-.033-.43 1.747-8.728 1.78-8.297 3.305-19.896 1.526-11.6.868-20.142-.171-2.226 1.839-2.381 1.723-.132 4.799 2.772 3.076 2.904 3.286 5.632.304 3.948-1.685 15.15-1.99 11.202-4.303 17.735.839-1.292 2.297-3.462 1.457-2.171 2.363-3.54.905-1.37 2.233-3.35t2.242-3.242q.914-1.261 2.021-2.827 1.107-1.566 1.935-2.532.828-.967 1.701-1.828 1.601-1.712 2.534-1.784 1.795-.138 4.134 2.101 2.339 2.239 2.477 4.033.055.718-2.797 3.538-2.852 2.819-5.659 6.213-2.808 3.393-2.617 5.87.191 2.477 1.842 4.696 1.651 2.22 3.468 3.308 1.817 1.087 3.385 2.23 1.569 1.143 1.635 2.005.216 2.799-3.589 3.092-4.522.349-12.574-6.686l-1.856-1.59q-5.742 9.83-7.896 9.996zm-67.069-12.15q-.421-1.452 2.639-3.313 3.059-1.86 6.932-2.982 3.872-1.121 6.814 1.4 2.941 2.521 4.043 6.325 1.102 3.804.579 14.037-.522 10.233-2.873 10.914-.968.28-1.795-.117-.828-.398-1.088-1.297-1.442-4.979-1.36-15.048-2.048 5.091-5.146 8.762-3.097 3.67-7.143 4.842-4.045 1.171-9.493-1.074-5.447-2.245-6.669-6.464-2.163-7.469-.371-17.845 1.793-10.376 6.707-18.771 4.915-8.394 10.932-10.137 2.075-.6 5.264 1.999 3.189 2.6 3.97 5.297.36 1.245-.539 1.505-.138.04-1.394.104-1.256.064-2.985.565-4.633 1.341-8.102 7.481-3.469 6.139-4.509 13.936-1.041 7.797.722 13.883.521 1.798 2.872 1.117 3.25-.941 7.147-5.218 3.896-4.276 5.413-8.614-1.501.51-3.68 1.141-2.178.631-4.322-.172-2.145-.804-2.565-2.256zm25.842-7.508l-1.724-7.963q-.643-3.98 1.844-4.382 1.422-.23 2.98.612 1.558.843 2.637 3.002 2.072-2.523 4.738-4.303 2.666-1.78 4.87-2.136 5.188-.839 5.59 1.649.207 1.28-.157 1.958-.365.679-.568 1.004-.202.324-.732.884-.529.559-.779.819-1.463 1.33-2.105 1.871-2.876 2.507-4.697 5.683-1.821 3.175-2.154 8.334-.598 8.484-1.762 12.793-1.163 4.309-3.402 4.671-2.239.361-3.685-1.593-1.447-1.954-1.751-3.838-.304-1.883.473-5.874.777-3.991.868-6.814.091-2.823-.484-6.377zm22.121-24.783q-.234-1.857 1.196-4.033 1.431-2.176 3.039-2.379 1.607-.203 4.308 3.376 2.701 3.578 2.922 5.328.22 1.75-.805 2.823-1.026 1.073-2.241 1.226-2.071.261-5.128-2.111-3.057-2.372-3.291-4.23zm2.197 8.795q2.501-.316 4.825 2.294 2.325 2.61 2.659 5.253.171 1.357-1.235 10.061-1.406 8.704-2.889 16.511-.506 2.894-3.149 3.228-1.571.198-2.899-.832-1.327-1.03-1.566-2.923-.238-1.893.633-9.659.871-7.766 1.164-13.21.293-5.443.804-8.011.51-2.568 1.653-2.712zm36.619 40.886q2.011-.564 5.055.825 3.045 1.389 3.414 2.706 1.226 4.367 2.206 15.721.98 11.353.553 22.092-.426 10.738-2.991 11.458-1.04.292-3.025-.385-1.984-.677-2.977-2.081-.992-1.404-3.967-5.879-6.845-10.268-12.185-16.771.098 2.215.371 6.252.273 4.036.4 6.356.128 2.32.3 5.599.173 3.28.159 5.228-.015 1.948-.133 3.926-.156 3.708-1.126 3.98-1.387.389-4.315-1.519-2.928-1.907-3.444-3.744-.515-1.838-1.432-20.425-.916-18.588-1.814-23.122-.531-2.693.855-3.082 1.179-.33 3.405.541t4.132 2.467q1.906 1.596 8.496 11.488 6.589 9.891 9.992 14.022.447-8.8-1.817-25.664-.908-6.7-1.03-8.199-.121-1.498.918-1.79zm17.683 4.335q-.336-1.842.973-4.094 1.308-2.251 2.902-2.543 1.594-.291 4.488 3.133t3.211 5.159q.317 1.735-.648 2.863-.965 1.128-2.169 1.348-2.054.375-5.237-1.825-3.183-2.2-3.52-4.041zm2.68 8.659q2.479-.453 4.944 2.025 2.465 2.477 2.944 5.098.246 1.345-.678 10.114-.923 8.769-1.973 16.646-.345 2.917-2.966 3.396-1.558.284-2.94-.671-1.382-.955-1.725-2.832-.343-1.877.098-9.679.441-7.802.434-13.254-.008-5.451.36-8.043.369-2.593 1.502-2.8zm36.52-4.177q3.297-.314 6.621 3.057 3.323 3.372 3.638 6.669.315 3.297-.766 7.884-1.081 4.588-3.193 8.984-2.112 4.397-5.637 7.626-3.525 3.23-7.646 3.623-4.122.394-9.73-3.049-1.05 4.151-1.982 4.24-1.505.143-4.038-2.146-2.533-2.29-2.684-3.867-.15-1.577 1.38-10.547 4.592-26.91 3.47-38.664-.206-2.151 1.873-2.349 1.649-.157 4.741 2.694 3.093 2.851 3.353 5.574.609 6.379-1.76 20.203 7.343-9.453 12.36-9.932zm-8.881 29.707q3.942-.376 7.475-6.934 3.533-6.557 2.965-12.506-.041-.43-.231-.521-.189-.09-.977-.015-3.943.376-7.971 5.535-4.028 5.158-6.791 12.582 3.236 2.078 5.53 1.859zm24.016-18.146l-.532-8.13q-.049-4.031 2.471-4.062 1.439-.018 2.857 1.044 1.417 1.063 2.165 3.358 2.421-2.19 5.321-3.558 2.899-1.367 5.131-1.395 5.256-.065 5.287 2.455.016 1.296-.445 1.914-.46.618-.709.909-.248.291-.854.766-.607.476-.892.695-1.643 1.101-2.357 1.541-3.215 2.056-5.484 4.928t-3.359 7.926q-1.842 8.303-3.627 12.394-1.786 4.09-4.054 4.118-2.268.028-3.41-2.118-1.143-2.146-1.166-4.054-.024-1.908 1.333-5.741 1.357-3.833 1.863-6.612.506-2.778.461-6.378zm49.516 6.396q1.208 1.244 1.14 2.177-.068.934-1.146 3.815-1.077 2.881-1.483 4.475-.406 1.595-.653 2.515-.248.921-.36 1.454-.111.533-.348 1.31-.238.777-.38 1.235-.142.459-.366 1.057-.224.597-.463.904-.239.307-.553.645-.473.543-1.478.47-1.005-.074-2.33-2.192-1.325-2.119-1.832-5.044-7.255 6.399-11.851 6.062-3.088-.226-6.428-3.9-3.341-3.674-3.091-7.085t3.801-9.503q3.551-6.093 9.295-11.087 5.744-4.993 10.986-4.609 3.016.221 6.708 4.029 3.691 3.808 3.478 6.716-.213 2.908-2.646 6.556zm-21.727 9.815q2.872.21 7.934-3.354 5.062-3.563 6.648-9.439.134-.856 1.294-.916.084-4.109-1.065-4.193-2.872-.21-6.7 3.263-3.828 3.474-6.4 7.545-2.573 4.07-2.72 6.081-.042.575.124.767.167.193.885.246zm50.208-21.936q2.698.453 4.79 4.089 2.091 3.636 1.663 6.192-.286 1.704-1.777 1.454-.853-.143-2.373-1.091-1.52-.949-3.188-1.229-1.669-.279-5.091.315-3.421.594-3.731 2.44-.119.711 1.572 2.381 1.691 1.671 3.725 3.472t3.529 4.644q1.494 2.842 1 5.789-.494 2.947-5.29 5.209-4.796 2.261-10.584 1.291-5.787-.971-9.465-4.289-3.677-3.318-3.213-6.087.464-2.769 2.737-2.388.923.155 2.082 1.079 3.205 2.655 8.495 3.542 5.29.887 5.528-.533.238-1.42-1.493-3.499-1.732-2.079-3.861-3.97-2.129-1.89-3.789-4.395-1.661-2.505-1.316-4.564.644-3.835 8.359-7.177 7.715-3.342 11.691-2.675z"/></g></svg>