<?xml version="1.0" standalone="no"?>
<!DOCTYPE svg PUBLIC "-//W3C//DTD SVG 20010904//EN"
 "http://www.w3.org/TR/2001/REC-SVG-20010904/DTD/svg10.dtd">
<svg version="1.0" xmlns="http://www.w3.org/2000/svg"
 width="700.000000pt" height="700.000000pt" viewBox="0 0 700.000000 700.000000"
 preserveAspectRatio="xMidYMid meet">
<metadata>
Created by potrace 1.11, written by Peter Selinger 2001-2013
</metadata>
<g transform="translate(0.000000,700.000000) scale(0.100000,-0.100000)"
fill="#000000" stroke="none">
<path d="M3465 5571 c-188 -69 -365 -199 -516 -378 -214 -255 -425 -646 -559
-1038 -155 -453 -230 -882 -230 -1315 0 -333 41 -587 122 -758 86 -183 271
-322 549 -416 160 -53 262 -69 404 -63 137 5 204 21 320 76 204 96 369 252
538 511 55 85 152 266 198 370 l24 55 6 -270 c11 -417 59 -785 116 -872 34
-52 122 -76 191 -52 90 31 152 219 189 570 13 126 17 263 17 594 1 378 -1 442
-18 530 -43 235 -139 414 -298 559 -174 159 -340 184 -613 91 -311 -105 -575
-268 -601 -370 -16 -65 41 -147 138 -196 137 -70 253 -69 483 3 74 23 137 39
140 36 8 -8 -47 -132 -101 -228 -140 -250 -352 -489 -586 -662 -43 -33 -157
-90 -212 -108 -51 -17 -135 -17 -163 -2 -48 26 -88 159 -119 392 -22 169 -15
547 14 735 110 709 426 1297 797 1481 88 43 238 81 356 90 114 9 135 24 125
88 -16 98 -98 227 -217 342 -196 187 -359 255 -494 205z"/>
</g>
</svg>
